%
T1C.5F095S300
X055400Y041400
X049000Y053600
X063400Y058600
X065400Y056400
X070200Y051800
X070800Y050600
X066800Y037400
X075600Y041200
X075600Y048000
X073800Y050600
X119000Y059600
X117800Y056400
X116000Y054600
X116000Y051000
X117800Y042800
X119000Y041000
X124600Y036400
X124600Y038200
X123600Y045600
X126800Y046600
X127800Y048400
X126800Y060200
X124600Y061800
X124600Y064400
X145000Y049400
X129200Y026200
X185600Y043000
X185600Y056600
X193600Y064000
X193600Y061800
X195400Y060800
X186600Y059800
X196600Y048400
X195400Y046800
X192600Y045800
X186600Y040600
X193600Y036800
X193600Y034800
X197600Y026200
X255400Y040600
X254200Y042800
X254200Y056600
X255400Y059600
X262200Y064200
X262200Y062400
X264000Y060600
X264000Y048400
X264000Y046600
X261200Y043600
X262200Y036600
X262200Y034800
X266000Y026200
X330000Y047000
X335400Y049400
T2C.762F197S550
X048263Y063627
X041097Y064643
X046177Y064643
X048263Y068707
X056733Y054673
X061813Y054673
X100093Y036900
X091720Y062754
X086640Y062754
X105173Y036900
X169140Y036227
X160100Y062600
X155020Y062600
X174220Y036227
X242267Y036427
X237187Y036427
X223740Y062433
X228820Y062433
X292427Y062579
X305920Y036779
X311000Y036779
X297507Y062579
T3C.9F197S550
X027740Y029210
X030280Y029210
X032820Y029210
X027740Y031750
X030280Y031750
X032820Y031750
X032242Y049530
X032242Y052070
X029702Y052070
X032242Y054610
X029394Y056347
X026969Y056347
X029394Y066507
X026969Y066507
X039681Y059731
X039681Y057191
X037900Y031750
X035360Y031750
X040440Y031750
X042980Y031750
X045520Y031750
X035360Y029210
X042980Y029210
X037900Y029210
X045520Y029210
X040440Y029210
X048060Y029210
X050600Y029210
X048060Y031750
X050600Y031750
X050022Y036830
X047482Y039370
X050022Y041910
X050022Y045466
X047482Y048006
X050022Y050546
X050403Y057191
X050403Y059731
X051546Y068900
X054086Y068900
X056769Y068900
X056769Y058740
X053840Y050946
X053840Y046910
X054000Y043073
X054000Y039428
X053140Y031750
X055680Y031750
X058220Y031750
X053140Y029210
X058220Y029210
X055680Y029210
X064160Y039428
X069273Y040873
X064160Y043073
X069273Y043413
X064000Y046910
X064000Y050946
X059746Y058740
X059746Y068900
X076380Y059900
X084000Y059900
X081460Y059900
X078920Y059900
X081460Y052280
X084000Y052280
X076380Y052280
X078920Y052280
X082400Y047020
X082400Y039400
X084940Y039400
X087480Y039400
X090020Y039400
X084940Y047020
X090020Y047020
X087480Y047020
X089080Y052280
X086540Y052280
X086540Y059900
X089080Y059900
X094160Y059900
X091620Y059900
X096700Y059900
X091620Y052280
X094160Y052280
X096700Y052280
X095100Y047020
X092560Y047020
X092560Y039400
X095100Y039400
X097640Y039400
X100180Y039400
X102720Y039400
X097640Y047020
X100180Y047020
X102720Y047020
X099240Y052280
X101780Y052280
X099240Y059900
X101780Y059900
X104320Y059900
X109400Y059900
X106860Y059900
X106860Y052280
X104320Y052280
X109400Y052280
X107800Y047020
X105260Y047020
X105260Y039400
X107800Y039400
X112880Y039400
X115420Y039400
X110340Y039400
X112880Y047020
X110340Y047020
X115420Y047020
X147500Y059900
X144960Y059900
X144960Y052280
X147500Y052280
X150980Y039400
X153520Y039400
X153520Y047020
X150980Y047020
X150040Y052280
X152580Y052280
X152580Y059900
X150040Y059900
X160200Y059900
X157660Y059900
X155120Y059900
X155120Y052280
X157660Y052280
X160200Y052280
X156060Y047020
X158600Y047020
X156060Y039400
X158600Y039400
X161140Y039400
X163680Y039400
X166220Y039400
X166220Y047020
X163680Y047020
X161140Y047020
X165280Y052280
X162740Y052280
X162740Y059900
X165280Y059900
X172900Y059900
X170360Y059900
X167820Y059900
X167820Y052280
X170360Y052280
X172900Y052280
X171300Y047020
X168760Y047020
X168760Y039400
X171300Y039400
X173840Y039400
X176380Y039400
X178920Y039400
X178920Y047020
X176380Y047020
X173840Y047020
X175440Y052280
X177980Y052280
X177980Y059900
X175440Y059900
X184000Y047020
X181460Y047020
X181460Y039400
X184000Y039400
X213540Y052280
X216080Y052280
X216080Y059900
X213540Y059900
X223700Y059900
X221160Y059900
X218620Y059900
X218620Y052280
X221160Y052280
X223700Y052280
X222100Y047020
X219560Y047020
X219560Y039400
X222100Y039400
X229720Y039400
X224640Y039400
X227180Y039400
X229720Y047020
X227180Y047020
X224640Y047020
X226240Y052280
X228780Y052280
X228780Y059900
X226240Y059900
X236400Y059900
X233860Y059900
X231320Y059900
X231320Y052280
X233860Y052280
X236400Y052280
X234800Y047020
X232260Y047020
X234800Y039400
X232260Y039400
X237340Y039400
X239880Y039400
X242420Y039400
X237340Y047020
X242420Y047020
X239880Y047020
X238940Y052280
X241480Y052280
X238940Y059900
X241480Y059900
X246560Y059900
X244020Y059900
X246560Y052280
X244020Y052280
X247500Y047020
X244960Y047020
X244960Y039400
X247500Y039400
X250040Y039400
X252580Y039400
X252580Y047020
X250040Y047020
X287200Y059900
X284660Y059900
X282120Y059900
X287200Y052280
X282120Y052280
X284660Y052280
X288140Y039400
X290680Y039400
X293220Y039400
X290680Y047020
X288140Y047020
X293220Y047020
X292280Y052280
X289740Y052280
X292280Y059900
X289740Y059900
X297360Y059900
X294820Y059900
X299900Y059900
X299900Y052280
X297360Y052280
X294820Y052280
X295760Y047020
X298300Y047020
X295760Y039400
X298300Y039400
X300840Y039400
X303380Y039400
X305920Y039400
X303380Y047020
X305920Y047020
X300840Y047020
X302440Y052280
X304980Y052280
X304980Y059900
X302440Y059900
X310060Y059900
X312600Y059900
X307520Y059900
X310060Y052280
X307520Y052280
X312600Y052280
X311000Y047020
X308460Y047020
X308460Y039400
X311000Y039400
X318620Y039400
X316080Y039400
X313540Y039400
X313540Y047020
X316080Y047020
X318620Y047020
X315140Y052280
X315140Y059900
X321160Y047020
X321160Y039400
X038900Y043310G85X038900Y040510
X032750Y043060G85X032750Y040760
T4C1.F197S550
X042273Y040173
X042273Y052873
X042910Y068580
X040370Y068580
X037830Y068580
X034950Y037210G85X037150Y037210
T5C1.3F107S550
X064440Y030480
X064500Y068580
X068000Y068580
X071500Y068580
X075000Y068580
X071440Y030480
X067940Y030480
X074940Y030480
X081940Y030480
X078440Y030480
X088940Y030480
X085440Y030480
X078500Y068580
X082000Y068580
X085500Y068580
X089000Y068580
X092500Y068580
X098790Y068580
X102290Y068580
X092440Y030480
X102230Y030480
X098730Y030480
X109230Y030480
X105730Y030480
X112730Y030480
X109290Y068580
X112790Y068580
X105790Y068580
X116290Y068580
X119790Y068580
X123290Y068580
X126790Y068580
X119730Y030480
X116230Y030480
X126730Y030480
X123230Y030480
X133020Y030480
X140020Y030480
X136520Y030480
X140080Y068580
X133080Y068580
X136580Y068580
X143580Y068580
X147080Y068580
X150580Y068580
X143520Y030480
X147020Y030480
X150520Y030480
X157520Y030480
X154020Y030480
X161020Y030480
X157580Y068580
X161080Y068580
X154080Y068580
X167370Y068580
X170870Y068580
X174370Y068580
X177870Y068580
X177810Y030480
X174310Y030480
X167310Y030480
X170810Y030480
X181310Y030480
X184810Y030480
X191810Y030480
X188310Y030480
X181370Y068580
X184870Y068580
X188370Y068580
X191870Y068580
X195370Y068580
X201660Y068580
X201600Y030480
X195310Y030480
X205100Y030480
X208600Y030480
X215600Y030480
X212100Y030480
X205160Y068580
X208660Y068580
X212160Y068580
X215660Y068580
X219160Y068580
X222660Y068580
X226160Y068580
X229660Y068580
X226100Y030480
X229600Y030480
X219100Y030480
X222600Y030480
X235890Y030480
X239390Y030480
X235950Y068580
X239450Y068580
X242950Y068580
X246450Y068580
X253450Y068580
X249950Y068580
X253390Y030480
X242890Y030480
X246390Y030480
X249890Y030480
X256890Y030480
X260390Y030480
X263890Y030480
X260450Y068580
X263950Y068580
X256950Y068580
X270240Y068580
X273740Y068580
X277240Y068580
X280740Y068580
X280680Y030480
X277180Y030480
X270180Y030480
X273680Y030480
X284180Y030480
X287680Y030480
X291180Y030480
X287740Y068580
X291240Y068580
X284240Y068580
X298240Y068580
X294740Y068580
X304530Y068580
X298180Y030480
X294680Y030480
X304470Y030480
X311470Y030480
X307970Y030480
X318470Y030480
X314970Y030480
X318530Y068580
X315030Y068580
X308030Y068580
X311530Y068580
X322030Y068580
X325530Y068580
X329030Y068580
X325470Y030480
X321970Y030480
X328970Y030480
X332470Y030480
X332530Y068580
T6C3.F069S658
X028900Y070400
X120400Y037400
X189400Y037400
X189400Y061400
X258400Y037400
X327400Y037400
X327400Y061400
M30
