*
*
G04 PADS 9.4.1 Build Number: 494907 generated Gerber (RS-274-X) file*
G04 PC Version=2.1*
*
%IN "MULTIO_D_pour.pcb"*%
*
%MOMM*%
*
%FSDAX33Y33*%
*
*
*
*
G04 PC Standard Apertures*
*
*
G04 Thermal Relief Aperture macro.*
%AMTER*
1,1,$1,0,0*
1,0,$1-$2,0,0*
21,0,$3,$4,0,0,45*
21,0,$3,$4,0,0,135*
%
*
*
G04 Annular Aperture macro.*
%AMANN*
1,1,$1,0,0*
1,0,$2,0,0*
%
*
*
G04 Odd Aperture macro.*
%AMODD*
1,1,$1,0,0*
1,0,$1-0.005,0,0*
%
*
*
G04 PC Custom Aperture Macros*
*
*
*
*
*
*
G04 PC Aperture Table*
*
%ADD010C,0.0254*%
%ADD011C,0.254*%
%ADD015C,0.2*%
%ADD016C,0.1*%
%ADD059C,2.032*%
%ADD072R,1.778X1.778*%
%ADD073C,1.778*%
%ADD090O,2.254X5.254*%
%ADD091O,2.254X4.754*%
%ADD092O,4.754X2.754*%
%ADD094R,1.905X1.905*%
%ADD095C,1.905*%
%ADD096C,2.754*%
%ADD097R,2.032X2.032*%
*
*
*
*
G04 PC Circuitry*
G04 Layer Name MULTIO_D_pour.pcb - circuitry*
%LPD*%
*
*
G04 PC Custom Flashes*
G04 Layer Name MULTIO_D_pour.pcb - flashes*
%LPD*%
*
*
G04 PC Circuitry*
G04 Layer Name MULTIO_D_pour.pcb - circuitry*
%LPD*%
*
G54D10*
G54D11*
G01X034009Y029673D02*
X033893Y029832D01*
X033893Y029832D02*
X033720Y029911D01*
X033720Y029911D02*
X033489Y029911D01*
X033489Y029911D02*
X033316Y029832D01*
X033316Y029832D02*
X033201Y029673D01*
X033201Y029673D02*
X033201Y029515D01*
X033258Y029356*
X033258Y029356D02*
X033316Y029276D01*
X033316Y029276D02*
X033431Y029197D01*
X033431Y029197D02*
X033778Y029038D01*
X033778Y029038D02*
X033893Y028959D01*
X033893Y028959D02*
X033951Y028880D01*
X034009Y028721*
X034009Y028483*
X033893Y028324*
X033893Y028324D02*
X033720Y028245D01*
X033720Y028245D02*
X033489Y028245D01*
X033489Y028245D02*
X033316Y028324D01*
X033201Y028483*
X034817Y029356D02*
X034701Y029276D01*
X034701Y029276D02*
X034586Y029118D01*
X034528Y028880*
X034528Y028880D02*
X034528Y028721D01*
X034528Y028721D02*
X034586Y028483D01*
X034701Y028324*
X034701Y028324D02*
X034817Y028245D01*
X034990Y028245*
X034990Y028245D02*
X035106Y028324D01*
X035221Y028483*
X035279Y028721*
X035279Y028880*
X035221Y029118*
X035106Y029276*
X035106Y029276D02*
X034990Y029356D01*
X034990Y029356D02*
X034817Y029356D01*
X035798Y029911D02*
X035798Y028245D01*
X037011Y029911D02*
X037011Y028245D01*
X037011Y029118D02*
X036895Y029276D01*
X036895Y029276D02*
X036780Y029356D01*
X036606Y029356*
X036606Y029356D02*
X036491Y029276D01*
X036491Y029276D02*
X036376Y029118D01*
X036318Y028880*
X036318Y028721*
X036376Y028483*
X036491Y028324*
X036606Y028245*
X036606Y028245D02*
X036780Y028245D01*
X036895Y028324*
X036895Y028324D02*
X037011Y028483D01*
X037530Y028880D02*
X038223Y028880D01*
X038223Y029038*
X038223Y029038D02*
X038165Y029197D01*
X038165Y029197D02*
X038107Y029276D01*
X038107Y029276D02*
X037992Y029356D01*
X037819Y029356*
X037703Y029276*
X037703Y029276D02*
X037588Y029118D01*
X037530Y028880*
X037530Y028880D02*
X037530Y028721D01*
X037530Y028721D02*
X037588Y028483D01*
X037703Y028324*
X037703Y028324D02*
X037819Y028245D01*
X037992Y028245*
X038107Y028324*
X038107Y028324D02*
X038223Y028483D01*
X038742Y029356D02*
X038742Y028245D01*
X038742Y028880D02*
X038800Y029118D01*
X038800Y029118D02*
X038916Y029276D01*
X038916Y029276D02*
X039031Y029356D01*
X039204Y029356*
X039724Y029356D02*
X039724Y028245D01*
X039724Y029038D02*
X039897Y029276D01*
X039897Y029276D02*
X040012Y029356D01*
X040012Y029356D02*
X040186Y029356D01*
X040301Y029276*
X040301Y029276D02*
X040359Y029038D01*
X040359Y029038D02*
X040359Y028245D01*
X040359Y029038D02*
X040532Y029276D01*
X040532Y029276D02*
X040647Y029356D01*
X040647Y029356D02*
X040821Y029356D01*
X040936Y029276*
X040936Y029276D02*
X040994Y029038D01*
X040994Y029038D02*
X040994Y028245D01*
X041513Y029356D02*
X041513Y028245D01*
X041513Y029038D02*
X041686Y029276D01*
X041686Y029276D02*
X041802Y029356D01*
X041975Y029356*
X041975Y029356D02*
X042091Y029276D01*
X042091Y029276D02*
X042148Y029038D01*
X042148Y029038D02*
X042148Y028245D01*
X043361Y029356D02*
X043361Y028245D01*
X043361Y029118D02*
X043245Y029276D01*
X043245Y029276D02*
X043130Y029356D01*
X042956Y029356*
X042956Y029356D02*
X042841Y029276D01*
X042841Y029276D02*
X042726Y029118D01*
X042668Y028880*
X042668Y028721*
X042726Y028483*
X042841Y028324*
X042956Y028245*
X042956Y028245D02*
X043130Y028245D01*
X043245Y028324*
X043245Y028324D02*
X043361Y028483D01*
X044515Y029118D02*
X044457Y029276D01*
X044457Y029276D02*
X044284Y029356D01*
X044284Y029356D02*
X044111Y029356D01*
X043938Y029276*
X043938Y029276D02*
X043880Y029118D01*
X043880Y029118D02*
X043938Y028959D01*
X044053Y028880*
X044053Y028880D02*
X044342Y028800D01*
X044342Y028800D02*
X044457Y028721D01*
X044457Y028721D02*
X044515Y028562D01*
X044515Y028562D02*
X044515Y028483D01*
X044515Y028483D02*
X044457Y028324D01*
X044457Y028324D02*
X044284Y028245D01*
X044284Y028245D02*
X044111Y028245D01*
X043938Y028324*
X043880Y028483*
X045035Y029911D02*
X045035Y028245D01*
X045612Y029356D02*
X045035Y028562D01*
X045266Y028880D02*
X045670Y028245D01*
X047517Y029911D02*
X047517Y028245D01*
X047517Y029911D02*
X048036Y029911D01*
X048036Y029911D02*
X048210Y029832D01*
X048210Y029832D02*
X048267Y029753D01*
X048267Y029753D02*
X048325Y029594D01*
X048325Y029594D02*
X048325Y029435D01*
X048325Y029435D02*
X048267Y029276D01*
X048267Y029276D02*
X048210Y029197D01*
X048210Y029197D02*
X048036Y029118D01*
X047517Y029118D02*
X048036Y029118D01*
X048036Y029118D02*
X048210Y029038D01*
X048210Y029038D02*
X048267Y028959D01*
X048267Y028959D02*
X048325Y028800D01*
X048325Y028800D02*
X048325Y028562D01*
X048325Y028562D02*
X048267Y028403D01*
X048267Y028403D02*
X048210Y028324D01*
X048036Y028245*
X048036Y028245D02*
X047517Y028245D01*
X049133Y029356D02*
X049018Y029276D01*
X049018Y029276D02*
X048902Y029118D01*
X048902Y029118D02*
X048845Y028880D01*
X048845Y028721*
X048902Y028483*
X048902Y028483D02*
X049018Y028324D01*
X049133Y028245*
X049133Y028245D02*
X049306Y028245D01*
X049306Y028245D02*
X049422Y028324D01*
X049537Y028483*
X049537Y028483D02*
X049595Y028721D01*
X049595Y028721D02*
X049595Y028880D01*
X049595Y028880D02*
X049537Y029118D01*
X049537Y029118D02*
X049422Y029276D01*
X049422Y029276D02*
X049306Y029356D01*
X049306Y029356D02*
X049133Y029356D01*
X050288Y029911D02*
X050288Y028562D01*
X050288Y028562D02*
X050346Y028324D01*
X050461Y028245*
X050576Y028245*
X050115Y029356D02*
X050519Y029356D01*
X051269Y029911D02*
X051269Y028562D01*
X051269Y028562D02*
X051327Y028324D01*
X051442Y028245*
X051442Y028245D02*
X051558Y028245D01*
X051096Y029356D02*
X051500Y029356D01*
X052366Y029356D02*
X052251Y029276D01*
X052251Y029276D02*
X052135Y029118D01*
X052135Y029118D02*
X052077Y028880D01*
X052077Y028880D02*
X052077Y028721D01*
X052077Y028721D02*
X052135Y028483D01*
X052135Y028483D02*
X052251Y028324D01*
X052366Y028245*
X052539Y028245*
X052539Y028245D02*
X052655Y028324D01*
X052770Y028483*
X052770Y028483D02*
X052828Y028721D01*
X052828Y028880*
X052770Y029118*
X052770Y029118D02*
X052655Y029276D01*
X052655Y029276D02*
X052539Y029356D01*
X052539Y029356D02*
X052366Y029356D01*
X053347Y029356D02*
X053347Y028245D01*
X053347Y029038D02*
X053521Y029276D01*
X053521Y029276D02*
X053636Y029356D01*
X053809Y029356*
X053809Y029356D02*
X053925Y029276D01*
X053925Y029276D02*
X053982Y029038D01*
X053982Y029038D02*
X053982Y028245D01*
X053982Y029038D02*
X054156Y029276D01*
X054156Y029276D02*
X054271Y029356D01*
X054444Y029356*
X054444Y029356D02*
X054560Y029276D01*
X054560Y029276D02*
X054617Y029038D01*
X054617Y029038D02*
X054617Y028245D01*
X029645Y030277D02*
X340525Y030277D01*
X340525Y078537*
X029645Y078537*
X029645Y030277*
G54D15*
X029450Y028450D02*
G75*
G03X029450Y028450I-001000J0D01*
G01X030450Y028450D02*
G03X030450Y028450I-002000J0D01*
G01X343902Y080266D02*
G03X343902Y080266I-001000J0D01*
G01X344902Y080266D02*
G03X344902Y080266I-002000J0D01*
G54D16*
G01X025450Y028450D02*
X031450Y028450D01*
X028450Y025450D02*
X028450Y031450D01*
X339902Y080266D02*
X345902Y080266D01*
X342902Y077266D02*
X342902Y083266D01*
G54D59*
X046518Y045050D03*
G54D72*
X043926Y064608D03*
X054648Y064608D03*
X058331Y073777D03*
X113645Y064777D03*
X086645Y044277D03*
X182225Y064777D03*
X223805Y044277D03*
X250805Y064777D03*
X155225Y044277D03*
X319385Y064777D03*
X292385Y044277D03*
X036487Y056947D03*
X036487Y054407D03*
X033947Y056947D03*
X036487Y059487D03*
X031985Y034087D03*
G54D73*
X052508Y073584D03*
X052508Y068504D03*
X045342Y069520D03*
X050422Y069520D03*
X104338Y041777D03*
X109418Y041777D03*
X164345Y067477D03*
X159265Y067477D03*
X173385Y041104D03*
X178465Y041104D03*
X233065Y067310D03*
X227985Y067310D03*
X241432Y041304D03*
X246512Y041304D03*
X301752Y067456D03*
X296672Y067456D03*
X310165Y041656D03*
X315245Y041656D03*
X095965Y067631D03*
X090885Y067631D03*
X054267Y041707D03*
X051727Y044247D03*
X054267Y046787D03*
X054267Y050343D03*
X051727Y052883D03*
X054267Y055423D03*
X066058Y059550D03*
X060978Y059550D03*
X043926Y062068D03*
X054648Y062068D03*
X055791Y073777D03*
X111105Y064777D03*
X108565Y064777D03*
X106025Y064777D03*
X103485Y064777D03*
X100945Y064777D03*
X098405Y064777D03*
X095865Y064777D03*
X093325Y064777D03*
X090785Y064777D03*
X088245Y064777D03*
X085705Y064777D03*
X083165Y064777D03*
X080625Y064777D03*
X080625Y057157D03*
X083165Y057157D03*
X085705Y057157D03*
X088245Y057157D03*
X090785Y057157D03*
X093325Y057157D03*
X095865Y057157D03*
X098405Y057157D03*
X100945Y057157D03*
X103485Y057157D03*
X106025Y057157D03*
X108565Y057157D03*
X111105Y057157D03*
X113645Y057157D03*
X089185Y044277D03*
X091725Y044277D03*
X094265Y044277D03*
X096805Y044277D03*
X099345Y044277D03*
X101885Y044277D03*
X104425Y044277D03*
X106965Y044277D03*
X109505Y044277D03*
X112045Y044277D03*
X114585Y044277D03*
X117125Y044277D03*
X119665Y044277D03*
X119665Y051897D03*
X117125Y051897D03*
X114585Y051897D03*
X112045Y051897D03*
X109505Y051897D03*
X106965Y051897D03*
X104425Y051897D03*
X101885Y051897D03*
X099345Y051897D03*
X096805Y051897D03*
X094265Y051897D03*
X091725Y051897D03*
X089185Y051897D03*
X086645Y051897D03*
X179685Y064777D03*
X177145Y064777D03*
X174605Y064777D03*
X172065Y064777D03*
X169525Y064777D03*
X166985Y064777D03*
X164445Y064777D03*
X161905Y064777D03*
X159365Y064777D03*
X156825Y064777D03*
X154285Y064777D03*
X151745Y064777D03*
X149205Y064777D03*
X149205Y057157D03*
X151745Y057157D03*
X154285Y057157D03*
X156825Y057157D03*
X159365Y057157D03*
X161905Y057157D03*
X164445Y057157D03*
X166985Y057157D03*
X169525Y057157D03*
X172065Y057157D03*
X174605Y057157D03*
X177145Y057157D03*
X179685Y057157D03*
X182225Y057157D03*
X226345Y044277D03*
X228885Y044277D03*
X231425Y044277D03*
X233965Y044277D03*
X236505Y044277D03*
X239045Y044277D03*
X241585Y044277D03*
X244125Y044277D03*
X246665Y044277D03*
X249205Y044277D03*
X251745Y044277D03*
X254285Y044277D03*
X256825Y044277D03*
X256825Y051897D03*
X254285Y051897D03*
X251745Y051897D03*
X249205Y051897D03*
X246665Y051897D03*
X244125Y051897D03*
X241585Y051897D03*
X239045Y051897D03*
X236505Y051897D03*
X233965Y051897D03*
X231425Y051897D03*
X228885Y051897D03*
X226345Y051897D03*
X223805Y051897D03*
X248265Y064777D03*
X245725Y064777D03*
X243185Y064777D03*
X240645Y064777D03*
X238105Y064777D03*
X235565Y064777D03*
X233025Y064777D03*
X230485Y064777D03*
X227945Y064777D03*
X225405Y064777D03*
X222865Y064777D03*
X220325Y064777D03*
X217785Y064777D03*
X217785Y057157D03*
X220325Y057157D03*
X222865Y057157D03*
X225405Y057157D03*
X227945Y057157D03*
X230485Y057157D03*
X233025Y057157D03*
X235565Y057157D03*
X238105Y057157D03*
X240645Y057157D03*
X243185Y057157D03*
X245725Y057157D03*
X248265Y057157D03*
X250805Y057157D03*
X157765Y044277D03*
X160305Y044277D03*
X162845Y044277D03*
X165385Y044277D03*
X167925Y044277D03*
X170465Y044277D03*
X173005Y044277D03*
X175545Y044277D03*
X178085Y044277D03*
X180625Y044277D03*
X183165Y044277D03*
X185705Y044277D03*
X188245Y044277D03*
X188245Y051897D03*
X185705Y051897D03*
X183165Y051897D03*
X180625Y051897D03*
X178085Y051897D03*
X175545Y051897D03*
X173005Y051897D03*
X170465Y051897D03*
X167925Y051897D03*
X165385Y051897D03*
X162845Y051897D03*
X160305Y051897D03*
X157765Y051897D03*
X155225Y051897D03*
X316845Y064777D03*
X314305Y064777D03*
X311765Y064777D03*
X309225Y064777D03*
X306685Y064777D03*
X304145Y064777D03*
X301605Y064777D03*
X299065Y064777D03*
X296525Y064777D03*
X293985Y064777D03*
X291445Y064777D03*
X288905Y064777D03*
X286365Y064777D03*
X286365Y057157D03*
X288905Y057157D03*
X291445Y057157D03*
X293985Y057157D03*
X296525Y057157D03*
X299065Y057157D03*
X301605Y057157D03*
X304145Y057157D03*
X306685Y057157D03*
X309225Y057157D03*
X311765Y057157D03*
X314305Y057157D03*
X316845Y057157D03*
X319385Y057157D03*
X294925Y044277D03*
X297465Y044277D03*
X300005Y044277D03*
X302545Y044277D03*
X305085Y044277D03*
X307625Y044277D03*
X310165Y044277D03*
X312705Y044277D03*
X315245Y044277D03*
X317785Y044277D03*
X320325Y044277D03*
X322865Y044277D03*
X325405Y044277D03*
X325405Y051897D03*
X322865Y051897D03*
X320325Y051897D03*
X317785Y051897D03*
X315245Y051897D03*
X312705Y051897D03*
X310165Y051897D03*
X307625Y051897D03*
X305085Y051897D03*
X302545Y051897D03*
X300005Y051897D03*
X297465Y051897D03*
X294925Y051897D03*
X292385Y051897D03*
X068245Y051787D03*
X058085Y051787D03*
X033639Y061224D03*
X033639Y071384D03*
X031214Y061224D03*
X031214Y071384D03*
X061014Y073777D03*
X061014Y063617D03*
X063990Y073777D03*
X063990Y063617D03*
X068245Y055823D03*
X058085Y055823D03*
X058245Y044305D03*
X068405Y044305D03*
X058245Y047950D03*
X068405Y047950D03*
X031985Y036627D03*
X034525Y034087D03*
X034525Y036627D03*
X037065Y034087D03*
X037065Y036627D03*
X039605Y034087D03*
X039605Y036627D03*
X042145Y034087D03*
X042145Y036627D03*
X044685Y034087D03*
X044685Y036627D03*
X047225Y034087D03*
X047225Y036627D03*
X049765Y034087D03*
X049765Y036627D03*
X052305Y034087D03*
X052305Y036627D03*
X054845Y034087D03*
X054845Y036627D03*
X057385Y034087D03*
X057385Y036627D03*
X059925Y034087D03*
X059925Y036627D03*
X062465Y034087D03*
X062465Y036627D03*
X073518Y045750D03*
X073518Y048290D03*
G54D90*
X043145Y046787D03*
G54D91*
X036995Y046787D03*
G54D92*
X040295Y042087D03*
G54D94*
X042075Y073457D03*
G54D95*
X044615Y073457D03*
X047155Y073457D03*
G54D96*
X068745Y073457D03*
X072245Y073457D03*
X075745Y073457D03*
X079245Y073457D03*
X082745Y073457D03*
X086245Y073457D03*
X089745Y073457D03*
X093245Y073457D03*
X096745Y073457D03*
X233845Y035357D03*
X230345Y035357D03*
X226845Y035357D03*
X223345Y035357D03*
X219845Y035357D03*
X216345Y035357D03*
X212845Y035357D03*
X209345Y035357D03*
X205845Y035357D03*
X199555Y035357D03*
X196055Y035357D03*
X192555Y035357D03*
X189055Y035357D03*
X185555Y035357D03*
X182055Y035357D03*
X178555Y035357D03*
X175055Y035357D03*
X171555Y035357D03*
X240195Y073457D03*
X243695Y073457D03*
X247195Y073457D03*
X250695Y073457D03*
X254195Y073457D03*
X257695Y073457D03*
X261195Y073457D03*
X264695Y073457D03*
X268195Y073457D03*
X268135Y035357D03*
X264635Y035357D03*
X261135Y035357D03*
X257635Y035357D03*
X254135Y035357D03*
X250635Y035357D03*
X247135Y035357D03*
X243635Y035357D03*
X240135Y035357D03*
X274485Y073457D03*
X277985Y073457D03*
X281485Y073457D03*
X284985Y073457D03*
X288485Y073457D03*
X291985Y073457D03*
X295485Y073457D03*
X298985Y073457D03*
X302485Y073457D03*
X302425Y035357D03*
X298925Y035357D03*
X295425Y035357D03*
X291925Y035357D03*
X288425Y035357D03*
X284925Y035357D03*
X281425Y035357D03*
X277925Y035357D03*
X274425Y035357D03*
X308775Y073457D03*
X312275Y073457D03*
X315775Y073457D03*
X319275Y073457D03*
X322775Y073457D03*
X326275Y073457D03*
X329775Y073457D03*
X333275Y073457D03*
X336775Y073457D03*
X336715Y035357D03*
X333215Y035357D03*
X329715Y035357D03*
X326215Y035357D03*
X322715Y035357D03*
X319215Y035357D03*
X315715Y035357D03*
X312215Y035357D03*
X308715Y035357D03*
X096685Y035357D03*
X093185Y035357D03*
X089685Y035357D03*
X086185Y035357D03*
X082685Y035357D03*
X079185Y035357D03*
X075685Y035357D03*
X072185Y035357D03*
X068685Y035357D03*
X137325Y073457D03*
X140825Y073457D03*
X144325Y073457D03*
X147825Y073457D03*
X151325Y073457D03*
X154825Y073457D03*
X158325Y073457D03*
X161825Y073457D03*
X165325Y073457D03*
X103035Y073457D03*
X106535Y073457D03*
X110035Y073457D03*
X113535Y073457D03*
X117035Y073457D03*
X120535Y073457D03*
X124035Y073457D03*
X127535Y073457D03*
X131035Y073457D03*
X130975Y035357D03*
X127475Y035357D03*
X123975Y035357D03*
X120475Y035357D03*
X116975Y035357D03*
X113475Y035357D03*
X109975Y035357D03*
X106475Y035357D03*
X102975Y035357D03*
X171615Y073457D03*
X175115Y073457D03*
X178615Y073457D03*
X182115Y073457D03*
X185615Y073457D03*
X189115Y073457D03*
X192615Y073457D03*
X196115Y073457D03*
X199615Y073457D03*
X165265Y035357D03*
X161765Y035357D03*
X158265Y035357D03*
X154765Y035357D03*
X151265Y035357D03*
X147765Y035357D03*
X144265Y035357D03*
X140765Y035357D03*
X137265Y035357D03*
X205905Y073457D03*
X209405Y073457D03*
X212905Y073457D03*
X216405Y073457D03*
X219905Y073457D03*
X223405Y073457D03*
X226905Y073457D03*
X230405Y073457D03*
X233905Y073457D03*
G54D97*
X046518Y057750D03*
G74*
X000000Y000000D02*
M02*
