*
*
G04 PADS 9.4.1 Build Number: 494907 generated Gerber (RS-274-X) file*
G04 PC Version=2.1*
*
%IN "MULTIO_D_pour.pcb"*%
*
%MOMM*%
*
%FSDAX33Y33*%
*
*
*
*
G04 PC Standard Apertures*
*
*
G04 Thermal Relief Aperture macro.*
%AMTER*
1,1,$1,0,0*
1,0,$1-$2,0,0*
21,0,$3,$4,0,0,45*
21,0,$3,$4,0,0,135*
%
*
*
G04 Annular Aperture macro.*
%AMANN*
1,1,$1,0,0*
1,0,$2,0,0*
%
*
*
G04 Odd Aperture macro.*
%AMODD*
1,1,$1,0,0*
1,0,$1-0.005,0,0*
%
*
*
G04 PC Custom Aperture Macros*
*
*
*
*
*
*
G04 PC Aperture Table*
*
%ADD010C,0.0254*%
%ADD011C,0.254*%
%ADD015C,0.2*%
%ADD016C,0.1*%
%ADD023R,1.524X1.524*%
%ADD024C,1.524*%
%ADD060C,1.651*%
%ADD068O,2X5*%
%ADD069O,2X4.5*%
%ADD070O,4.5X2*%
%ADD072R,1.778X1.778*%
%ADD073C,1.778*%
%ADD082R,1.651X1.651*%
%ADD083C,2.5*%
%ADD084C,1.27*%
*
*
*
*
G04 PC Circuitry*
G04 Layer Name MULTIO_D_pour.pcb - circuitry*
%LPD*%
*
*
G04 PC Custom Flashes*
G04 Layer Name MULTIO_D_pour.pcb - flashes*
%LPD*%
*
*
G04 PC Circuitry*
G04 Layer Name MULTIO_D_pour.pcb - circuitry*
%LPD*%
*
G54D10*
G54D11*
G01X035009Y029673D02*
X034893Y029832D01*
X034893Y029832D02*
X034720Y029911D01*
X034720Y029911D02*
X034489Y029911D01*
X034489Y029911D02*
X034316Y029832D01*
X034316Y029832D02*
X034201Y029673D01*
X034201Y029673D02*
X034201Y029515D01*
X034258Y029356*
X034258Y029356D02*
X034316Y029276D01*
X034316Y029276D02*
X034431Y029197D01*
X034431Y029197D02*
X034778Y029038D01*
X034778Y029038D02*
X034893Y028959D01*
X034893Y028959D02*
X034951Y028880D01*
X035009Y028721*
X035009Y028483*
X034893Y028324*
X034893Y028324D02*
X034720Y028245D01*
X034720Y028245D02*
X034489Y028245D01*
X034489Y028245D02*
X034316Y028324D01*
X034201Y028483*
X035817Y029356D02*
X035701Y029276D01*
X035701Y029276D02*
X035586Y029118D01*
X035528Y028880*
X035528Y028880D02*
X035528Y028721D01*
X035528Y028721D02*
X035586Y028483D01*
X035701Y028324*
X035701Y028324D02*
X035817Y028245D01*
X035990Y028245*
X035990Y028245D02*
X036106Y028324D01*
X036221Y028483*
X036279Y028721*
X036279Y028880*
X036221Y029118*
X036106Y029276*
X036106Y029276D02*
X035990Y029356D01*
X035990Y029356D02*
X035817Y029356D01*
X036798Y029911D02*
X036798Y028245D01*
X038011Y029911D02*
X038011Y028245D01*
X038011Y029118D02*
X037895Y029276D01*
X037895Y029276D02*
X037780Y029356D01*
X037606Y029356*
X037606Y029356D02*
X037491Y029276D01*
X037491Y029276D02*
X037376Y029118D01*
X037318Y028880*
X037318Y028721*
X037376Y028483*
X037491Y028324*
X037606Y028245*
X037606Y028245D02*
X037780Y028245D01*
X037895Y028324*
X037895Y028324D02*
X038011Y028483D01*
X038530Y028880D02*
X039223Y028880D01*
X039223Y029038*
X039223Y029038D02*
X039165Y029197D01*
X039165Y029197D02*
X039107Y029276D01*
X039107Y029276D02*
X038992Y029356D01*
X038819Y029356*
X038703Y029276*
X038703Y029276D02*
X038588Y029118D01*
X038530Y028880*
X038530Y028880D02*
X038530Y028721D01*
X038530Y028721D02*
X038588Y028483D01*
X038703Y028324*
X038703Y028324D02*
X038819Y028245D01*
X038992Y028245*
X039107Y028324*
X039107Y028324D02*
X039223Y028483D01*
X039742Y029356D02*
X039742Y028245D01*
X039742Y028880D02*
X039800Y029118D01*
X039800Y029118D02*
X039916Y029276D01*
X039916Y029276D02*
X040031Y029356D01*
X040204Y029356*
X040724Y029356D02*
X040724Y028245D01*
X040724Y029038D02*
X040897Y029276D01*
X040897Y029276D02*
X041012Y029356D01*
X041012Y029356D02*
X041186Y029356D01*
X041301Y029276*
X041301Y029276D02*
X041359Y029038D01*
X041359Y029038D02*
X041359Y028245D01*
X041359Y029038D02*
X041532Y029276D01*
X041532Y029276D02*
X041647Y029356D01*
X041647Y029356D02*
X041821Y029356D01*
X041936Y029276*
X041936Y029276D02*
X041994Y029038D01*
X041994Y029038D02*
X041994Y028245D01*
X043206Y029356D02*
X043206Y028245D01*
X043206Y029118D02*
X043091Y029276D01*
X043091Y029276D02*
X042975Y029356D01*
X042975Y029356D02*
X042802Y029356D01*
X042686Y029276*
X042686Y029276D02*
X042571Y029118D01*
X042513Y028880*
X042513Y028880D02*
X042513Y028721D01*
X042513Y028721D02*
X042571Y028483D01*
X042686Y028324*
X042686Y028324D02*
X042802Y028245D01*
X042975Y028245*
X042975Y028245D02*
X043091Y028324D01*
X043206Y028483*
X044361Y029118D02*
X044303Y029276D01*
X044303Y029276D02*
X044130Y029356D01*
X043956Y029356*
X043956Y029356D02*
X043783Y029276D01*
X043783Y029276D02*
X043726Y029118D01*
X043783Y028959*
X043783Y028959D02*
X043899Y028880D01*
X044187Y028800*
X044187Y028800D02*
X044303Y028721D01*
X044361Y028562*
X044361Y028562D02*
X044361Y028483D01*
X044303Y028324*
X044130Y028245*
X043956Y028245*
X043956Y028245D02*
X043783Y028324D01*
X043783Y028324D02*
X043726Y028483D01*
X044880Y029911D02*
X044880Y028245D01*
X045457Y029356D02*
X044880Y028562D01*
X045111Y028880D02*
X045515Y028245D01*
X047766Y029911D02*
X047766Y028245D01*
X047362Y029911D02*
X048171Y029911D01*
X048979Y029356D02*
X048863Y029276D01*
X048863Y029276D02*
X048748Y029118D01*
X048690Y028880*
X048690Y028880D02*
X048690Y028721D01*
X048690Y028721D02*
X048748Y028483D01*
X048863Y028324*
X048863Y028324D02*
X048979Y028245D01*
X049152Y028245*
X049267Y028324*
X049267Y028324D02*
X049383Y028483D01*
X049441Y028721*
X049441Y028880*
X049383Y029118*
X049267Y029276*
X049267Y029276D02*
X049152Y029356D01*
X048979Y029356*
X049960Y029356D02*
X049960Y027689D01*
X049960Y029118D02*
X050076Y029276D01*
X050076Y029276D02*
X050191Y029356D01*
X050364Y029356*
X050364Y029356D02*
X050480Y029276D01*
X050480Y029276D02*
X050595Y029118D01*
X050595Y029118D02*
X050653Y028880D01*
X050653Y028721*
X050595Y028483*
X050595Y028483D02*
X050480Y028324D01*
X050364Y028245*
X050364Y028245D02*
X050191Y028245D01*
X050076Y028324*
X049960Y028483*
X029645Y030277D02*
X340525Y030277D01*
X340525Y078537*
X029645Y078537*
X029645Y030277*
G54D15*
X029450Y028450D02*
G75*
G03X029450Y028450I-001000J0D01*
G01X030450Y028450D02*
G03X030450Y028450I-002000J0D01*
G01X343902Y080266D02*
G03X343902Y080266I-001000J0D01*
G01X344902Y080266D02*
G03X344902Y080266I-002000J0D01*
G54D16*
G01X025450Y028450D02*
X031450Y028450D01*
X028450Y025450D02*
X028450Y031450D01*
X339902Y080266D02*
X345902Y080266D01*
X342902Y077266D02*
X342902Y083266D01*
G54D23*
X043926Y064608D03*
X054648Y064608D03*
X058331Y073777D03*
X113645Y064777D03*
X086645Y044277D03*
X182225Y064777D03*
X223805Y044277D03*
X250805Y064777D03*
X155225Y044277D03*
X319385Y064777D03*
X292385Y044277D03*
X036487Y056947D03*
X036487Y054407D03*
X033947Y056947D03*
X036487Y059487D03*
X031985Y034087D03*
G54D24*
X054267Y041707D03*
X051727Y044247D03*
X054267Y046787D03*
X054267Y050343D03*
X051727Y052883D03*
X054267Y055423D03*
X043926Y062068D03*
X054648Y062068D03*
X055791Y073777D03*
X111105Y064777D03*
X108565Y064777D03*
X106025Y064777D03*
X103485Y064777D03*
X100945Y064777D03*
X098405Y064777D03*
X095865Y064777D03*
X093325Y064777D03*
X090785Y064777D03*
X088245Y064777D03*
X085705Y064777D03*
X083165Y064777D03*
X080625Y064777D03*
X080625Y057157D03*
X083165Y057157D03*
X085705Y057157D03*
X088245Y057157D03*
X090785Y057157D03*
X093325Y057157D03*
X095865Y057157D03*
X098405Y057157D03*
X100945Y057157D03*
X103485Y057157D03*
X106025Y057157D03*
X108565Y057157D03*
X111105Y057157D03*
X113645Y057157D03*
X089185Y044277D03*
X091725Y044277D03*
X094265Y044277D03*
X096805Y044277D03*
X099345Y044277D03*
X101885Y044277D03*
X104425Y044277D03*
X106965Y044277D03*
X109505Y044277D03*
X112045Y044277D03*
X114585Y044277D03*
X117125Y044277D03*
X119665Y044277D03*
X119665Y051897D03*
X117125Y051897D03*
X114585Y051897D03*
X112045Y051897D03*
X109505Y051897D03*
X106965Y051897D03*
X104425Y051897D03*
X101885Y051897D03*
X099345Y051897D03*
X096805Y051897D03*
X094265Y051897D03*
X091725Y051897D03*
X089185Y051897D03*
X086645Y051897D03*
X179685Y064777D03*
X177145Y064777D03*
X174605Y064777D03*
X172065Y064777D03*
X169525Y064777D03*
X166985Y064777D03*
X164445Y064777D03*
X161905Y064777D03*
X159365Y064777D03*
X156825Y064777D03*
X154285Y064777D03*
X151745Y064777D03*
X149205Y064777D03*
X149205Y057157D03*
X151745Y057157D03*
X154285Y057157D03*
X156825Y057157D03*
X159365Y057157D03*
X161905Y057157D03*
X164445Y057157D03*
X166985Y057157D03*
X169525Y057157D03*
X172065Y057157D03*
X174605Y057157D03*
X177145Y057157D03*
X179685Y057157D03*
X182225Y057157D03*
X226345Y044277D03*
X228885Y044277D03*
X231425Y044277D03*
X233965Y044277D03*
X236505Y044277D03*
X239045Y044277D03*
X241585Y044277D03*
X244125Y044277D03*
X246665Y044277D03*
X249205Y044277D03*
X251745Y044277D03*
X254285Y044277D03*
X256825Y044277D03*
X256825Y051897D03*
X254285Y051897D03*
X251745Y051897D03*
X249205Y051897D03*
X246665Y051897D03*
X244125Y051897D03*
X241585Y051897D03*
X239045Y051897D03*
X236505Y051897D03*
X233965Y051897D03*
X231425Y051897D03*
X228885Y051897D03*
X226345Y051897D03*
X223805Y051897D03*
X248265Y064777D03*
X245725Y064777D03*
X243185Y064777D03*
X240645Y064777D03*
X238105Y064777D03*
X235565Y064777D03*
X233025Y064777D03*
X230485Y064777D03*
X227945Y064777D03*
X225405Y064777D03*
X222865Y064777D03*
X220325Y064777D03*
X217785Y064777D03*
X217785Y057157D03*
X220325Y057157D03*
X222865Y057157D03*
X225405Y057157D03*
X227945Y057157D03*
X230485Y057157D03*
X233025Y057157D03*
X235565Y057157D03*
X238105Y057157D03*
X240645Y057157D03*
X243185Y057157D03*
X245725Y057157D03*
X248265Y057157D03*
X250805Y057157D03*
X157765Y044277D03*
X160305Y044277D03*
X162845Y044277D03*
X165385Y044277D03*
X167925Y044277D03*
X170465Y044277D03*
X173005Y044277D03*
X175545Y044277D03*
X178085Y044277D03*
X180625Y044277D03*
X183165Y044277D03*
X185705Y044277D03*
X188245Y044277D03*
X188245Y051897D03*
X185705Y051897D03*
X183165Y051897D03*
X180625Y051897D03*
X178085Y051897D03*
X175545Y051897D03*
X173005Y051897D03*
X170465Y051897D03*
X167925Y051897D03*
X165385Y051897D03*
X162845Y051897D03*
X160305Y051897D03*
X157765Y051897D03*
X155225Y051897D03*
X316845Y064777D03*
X314305Y064777D03*
X311765Y064777D03*
X309225Y064777D03*
X306685Y064777D03*
X304145Y064777D03*
X301605Y064777D03*
X299065Y064777D03*
X296525Y064777D03*
X293985Y064777D03*
X291445Y064777D03*
X288905Y064777D03*
X286365Y064777D03*
X286365Y057157D03*
X288905Y057157D03*
X291445Y057157D03*
X293985Y057157D03*
X296525Y057157D03*
X299065Y057157D03*
X301605Y057157D03*
X304145Y057157D03*
X306685Y057157D03*
X309225Y057157D03*
X311765Y057157D03*
X314305Y057157D03*
X316845Y057157D03*
X319385Y057157D03*
X294925Y044277D03*
X297465Y044277D03*
X300005Y044277D03*
X302545Y044277D03*
X305085Y044277D03*
X307625Y044277D03*
X310165Y044277D03*
X312705Y044277D03*
X315245Y044277D03*
X317785Y044277D03*
X320325Y044277D03*
X322865Y044277D03*
X325405Y044277D03*
X325405Y051897D03*
X322865Y051897D03*
X320325Y051897D03*
X317785Y051897D03*
X315245Y051897D03*
X312705Y051897D03*
X310165Y051897D03*
X307625Y051897D03*
X305085Y051897D03*
X302545Y051897D03*
X300005Y051897D03*
X297465Y051897D03*
X294925Y051897D03*
X292385Y051897D03*
X068245Y051787D03*
X058085Y051787D03*
X033639Y061224D03*
X033639Y071384D03*
X031214Y061224D03*
X031214Y071384D03*
X061014Y073777D03*
X061014Y063617D03*
X063990Y073777D03*
X063990Y063617D03*
X068245Y055823D03*
X058085Y055823D03*
X058245Y044305D03*
X068405Y044305D03*
X058245Y047950D03*
X068405Y047950D03*
X031985Y036627D03*
X034525Y034087D03*
X034525Y036627D03*
X037065Y034087D03*
X037065Y036627D03*
X039605Y034087D03*
X039605Y036627D03*
X042145Y034087D03*
X042145Y036627D03*
X044685Y034087D03*
X044685Y036627D03*
X047225Y034087D03*
X047225Y036627D03*
X049765Y034087D03*
X049765Y036627D03*
X052305Y034087D03*
X052305Y036627D03*
X054845Y034087D03*
X054845Y036627D03*
X057385Y034087D03*
X057385Y036627D03*
X059925Y034087D03*
X059925Y036627D03*
X062465Y034087D03*
X062465Y036627D03*
X073518Y045750D03*
X073518Y048290D03*
G54D60*
X044615Y073457D03*
X047155Y073457D03*
G54D68*
X043145Y046787D03*
G54D69*
X036995Y046787D03*
G54D70*
X040295Y042087D03*
G54D72*
X046518Y057750D03*
G54D73*
X046518Y045050D03*
G54D82*
X042075Y073457D03*
G54D83*
X068745Y073457D03*
X072245Y073457D03*
X075745Y073457D03*
X079245Y073457D03*
X082745Y073457D03*
X086245Y073457D03*
X089745Y073457D03*
X093245Y073457D03*
X096745Y073457D03*
X233845Y035357D03*
X230345Y035357D03*
X226845Y035357D03*
X223345Y035357D03*
X219845Y035357D03*
X216345Y035357D03*
X212845Y035357D03*
X209345Y035357D03*
X205845Y035357D03*
X199555Y035357D03*
X196055Y035357D03*
X192555Y035357D03*
X189055Y035357D03*
X185555Y035357D03*
X182055Y035357D03*
X178555Y035357D03*
X175055Y035357D03*
X171555Y035357D03*
X240195Y073457D03*
X243695Y073457D03*
X247195Y073457D03*
X250695Y073457D03*
X254195Y073457D03*
X257695Y073457D03*
X261195Y073457D03*
X264695Y073457D03*
X268195Y073457D03*
X268135Y035357D03*
X264635Y035357D03*
X261135Y035357D03*
X257635Y035357D03*
X254135Y035357D03*
X250635Y035357D03*
X247135Y035357D03*
X243635Y035357D03*
X240135Y035357D03*
X274485Y073457D03*
X277985Y073457D03*
X281485Y073457D03*
X284985Y073457D03*
X288485Y073457D03*
X291985Y073457D03*
X295485Y073457D03*
X298985Y073457D03*
X302485Y073457D03*
X302425Y035357D03*
X298925Y035357D03*
X295425Y035357D03*
X291925Y035357D03*
X288425Y035357D03*
X284925Y035357D03*
X281425Y035357D03*
X277925Y035357D03*
X274425Y035357D03*
X308775Y073457D03*
X312275Y073457D03*
X315775Y073457D03*
X319275Y073457D03*
X322775Y073457D03*
X326275Y073457D03*
X329775Y073457D03*
X333275Y073457D03*
X336775Y073457D03*
X336715Y035357D03*
X333215Y035357D03*
X329715Y035357D03*
X326215Y035357D03*
X322715Y035357D03*
X319215Y035357D03*
X315715Y035357D03*
X312215Y035357D03*
X308715Y035357D03*
X096685Y035357D03*
X093185Y035357D03*
X089685Y035357D03*
X086185Y035357D03*
X082685Y035357D03*
X079185Y035357D03*
X075685Y035357D03*
X072185Y035357D03*
X068685Y035357D03*
X137325Y073457D03*
X140825Y073457D03*
X144325Y073457D03*
X147825Y073457D03*
X151325Y073457D03*
X154825Y073457D03*
X158325Y073457D03*
X161825Y073457D03*
X165325Y073457D03*
X103035Y073457D03*
X106535Y073457D03*
X110035Y073457D03*
X113535Y073457D03*
X117035Y073457D03*
X120535Y073457D03*
X124035Y073457D03*
X127535Y073457D03*
X131035Y073457D03*
X130975Y035357D03*
X127475Y035357D03*
X123975Y035357D03*
X120475Y035357D03*
X116975Y035357D03*
X113475Y035357D03*
X109975Y035357D03*
X106475Y035357D03*
X102975Y035357D03*
X171615Y073457D03*
X175115Y073457D03*
X178615Y073457D03*
X182115Y073457D03*
X185615Y073457D03*
X189115Y073457D03*
X192615Y073457D03*
X196115Y073457D03*
X199615Y073457D03*
X165265Y035357D03*
X161765Y035357D03*
X158265Y035357D03*
X154765Y035357D03*
X151265Y035357D03*
X147765Y035357D03*
X144265Y035357D03*
X140765Y035357D03*
X137265Y035357D03*
X205905Y073457D03*
X209405Y073457D03*
X212905Y073457D03*
X216405Y073457D03*
X219905Y073457D03*
X223405Y073457D03*
X226905Y073457D03*
X230405Y073457D03*
X233905Y073457D03*
G54D84*
X052508Y073584D03*
X052508Y068504D03*
X045342Y069520D03*
X050422Y069520D03*
X104338Y041777D03*
X109418Y041777D03*
X164345Y067477D03*
X159265Y067477D03*
X173385Y041104D03*
X178465Y041104D03*
X233065Y067310D03*
X227985Y067310D03*
X241432Y041304D03*
X246512Y041304D03*
X301752Y067456D03*
X296672Y067456D03*
X310165Y041656D03*
X315245Y041656D03*
X095965Y067631D03*
X090885Y067631D03*
X066058Y059550D03*
X060978Y059550D03*
G74*
X000000Y000000D02*
M02*
